<?xml version="1.0" encoding="utf-8"?>
<!-- Generator: Adobe Illustrator 20.1.0, SVG Export Plug-In . SVG Version: 6.00 Build 0)  -->
<svg version="1.1" id="Contours" xmlns="http://www.w3.org/2000/svg" xmlns:xlink="http://www.w3.org/1999/xlink" x="0px" y="0px"
	 viewBox="0 0 614 1112.5" style="enable-background:new 0 0 614 1112.5;" xml:space="preserve">
<style type="text/css">
	.st0{fill:#444444;}
</style>
<desc  xmlns:shape="http://adobe.com/products/shape"></desc>
<path class="st0" d="M456.7,475.6c2,6.6,3.9,13,5.7,19.5c4.1,14.9,8.2,29.9,12.3,44.9c1.8,6.4,3.2,13,5.2,19.3c1,3,3.2,5.6,8.2,5.1
	c5.9-0.6,11.9-1.2,17.8-1c6.5,0.2,12.9,0.9,19.2,2c10.5,1.7,21.6,2.9,31.5,6.2c12.9,4.2,26.1,9.1,37.1,15.9c9,5.5,18,13,19.2,22.8
	c1.4,10.1,1,20.3,0.8,30.5c-0.1,6.1-0.6,12.3-2.5,18.1c-3.2,9.4-6.7,18.8-11.4,27.8c-5.1,9.5-10.8,19-17.8,27.6
	c-8.5,10.4-20.6,18.2-35.4,23c-5.1,1.6-10.5,2.5-15.6,4.1c-3.3,1.1-6.7,2.4-4.6,6.6c4.2,8.2,8,16.5,11.5,24.8
	c7.7,17.8,14.7,35.8,23,53.5c5.9,12.8,13.4,25.2,20.4,37.8c2.8,4.9,5.2,10,8.7,14.6c2.2,2.7,5.8,5.4,9.6,6.4
	c7.6,2,10.8,5.8,11.8,11.7c0.9,4.8,3,9.6-2.9,13.2c-4.8,2.9-9.7,5.6-14.7,8.3c-5.7,3.1-11.4,6.4-17.5,9c-11.5,4.9-23.3,9.4-35.1,14
	c-8.5,3.4-17.1,6.8-25.7,10.1c-18.7,7.2-38.4,12.4-58.7,15.9c-15.1,2.6-30,5.6-45.2,7.9c-7.7,1.2-15.7,1.5-23.5,2.1
	c-11.1,0.7-22.2,1.3-33.2,2.1c-0.5,0-1.3,1.6-1,2c9.2,11.8,14.8,25.4,28.9,35.1c12.8,8.9,24.2,19,36.3,28.4c4.4,3.5,9.2,6.6,13.7,10
	c1.1,0.8,1.9,2,2.5,3.2c0.3,0.6-0.4,1.5-0.6,2.2c-0.8-0.2-1.4-0.4-2.2-0.7c-1-0.5-2-1.1-3-1.4c-1.3-0.4-2.5-0.5-3.9-0.7
	c0.6,0.7,1.4,1.4,1.9,2.1c2,2.5,1.3,4.8-1.4,6.5c-7.7,4.9-15.4,9.9-23.5,14.5c-10.6,6.1-22.3,11.2-35.1,13.7
	c-7.8,1.6-15.8,2.1-23.8,3c-1.1,0.1-2.4-0.3-3.4-0.7c-12.2-4.5-24.4-8.9-36.5-13.8c-5.1-2.1-9.6-5.2-14.1-8.1
	c-13.8-8.9-22.7-20.9-33.2-32c-8.1-8.7-14.9-18.4-17.1-28.3c-2.3-11-11.9-13.5-20.6-18.2c-7.6-3.9-14.3-8.9-21.9-12.6
	c-10.8-5.1-19.9-11.3-28.4-18.4c-0.8-0.6-3.5-0.8-3.7-0.6c-0.9,1.4-1.8,3-1.6,4.4c1.5,11.2,3.2,22.3,5.1,33.4
	c0.5,2.8,2.3,5.6,3.8,8.2c3.2,5.8,6.2,11.7,10.3,17.1c2,2.8,6.6,4.3,9.4,6.8c8.9,7.7,19.5,13.5,31,18.4c14.6,6,27,15.1,43,19.3
	c7,1.8,12.7,6.2,19.4,8.9c13.4,5.3,27.1,10.2,40.8,15.2c0.9,0.3,1.9,0.6,2.5,1c12.2,7.9,25.3,5.1,38.6,2.5
	c16.5-3.2,30.8-9.8,44.6-17.4c4.4-2.3,8.2-5.3,12.5-7.6c1.9-1,4.6-1,6.8-1.5c-0.1,1.7,0.8,4-0.4,5c-4.7,4.2-9.1,9.2-15.1,11.8
	c-15.8,6.7-32,12.9-48.7,18c-14.6,4.4-29.1,2.6-43.3-3.6c-12.5-5.6-26.2-9.5-39.4-14.2c-8.4-3-16.5-6.4-24.8-9.5
	c-14.1-5.2-28.6-9.8-42.3-15.7c-11-4.7-21.4-10.4-31.1-16.6c-9.9-6.3-18.4-13.8-27.7-20.5c-4.8-3.5-10.1-6.5-14.9-10
	c-3.4-2.6-6.2-5.7-9.5-8.4c-5.8-4.8-11.9-9.3-17.7-14.1c-5.1-4.1-10.1-8.2-14.7-12.6c-6.8-6.7-13-13.8-20-20.4
	c-1.4-1.5-4.9-1.6-7.6-2.2c-12.4-2.9-25.1-5.2-37.2-8.7c-9.5-2.7-18.4-6.9-27.5-10.3c-6.1-2.2-7.3-6.2-6.6-10.9
	c0.6-4.6,2.4-9.4,8.7-10.3c11.1-1.8,12.5-8.8,15.2-15.4c0.3-0.4-0.3-1.1,0.1-1.4c6.1-6.9,0.9-12.4-2.4-18.8
	c-6.7-13.1-13.2-26.5-17.6-40.2c-3.2-10.1-3.3-20.8-4.1-31.2c-1.1-15.4-2.7-30.8-2.3-46.2c0.1-11.7,2.3-23.4,4.9-35
	c3.3-13.9,11.9-26.4,21.5-38.3c3.2-4,8.4-7.1,13-10.2c11.6-7.8,23.2-15.8,35.4-23c10.4-5.9,21.4-11.2,32.8-16
	c8.5-3.5,11-8.6,9.6-15.6c-0.3-1.1-0.8-2.6-1.8-3.3c-13.8-9.6-22.3-22.3-32.4-34c-5.1-5.8-11.3-11.3-14.8-17.6
	c-4.7-8-6.7-16.8-10.5-25.1c-4.9-10.5-6.2-21.4-4.9-32.3c1.5-12.5,4.1-25,6.3-37.5c1.4-7.6,2.7-15.3,5.1-22.8
	c4.9-15.1,10.5-30,19.9-44c12-17.7,25.8-34.3,42.3-49.6c0.9-0.8,1.3-2.2,2.3-2.7c13-6.7,14.1-16.7,12.8-27.4c-0.3-1.8-0.3-3.7,0-5.5
	c0.6-5.5-0.5-10.1-7.3-13.1c-4.9-2.1-5.6-5.9-3.2-9.8c6.8-11.6,14.1-23.1,21-34.6c12.8-21.5,28.7-41.5,45.6-61.1
	c13-15.2,25.6-30.7,39.1-45.7c7.6-8.3,16.5-15.9,24.9-23.8c5.4-5.1,10.6-10.5,16.6-15c7.5-5.6,15.7-10.4,23.4-15.7
	c1.9-1.2,3.7-3.2,4.2-5c0.5-2.5-0.5-5.2-0.5-7.9c0.1-4.6,1-9.3,0.5-13.9c-0.9-10.1-2.5-20.2-3.5-30.3c-0.5-4.1-0.5-8.3,0-12.5
	c0.8-6-2.5-10.5-7.5-14.6c-5.1-4.3-8-12.8-3.5-17c3.4-3.3,9.9-5.6,15.3-6.4C311,0,315.8,1.7,319,5.8c6.6,8.3,3.8,15.6-2.9,22.2
	c-0.9,0.7-2.2,1.4-2.3,2.2c-0.3,2,0.1,3.9,0.3,5.9c2-0.6,4.1-1,5.8-1.8c16.8-7.1,35.1-11.4,53.5-13.6c15.8-1.9,32.3-1,47.7,3.6
	c4.2,1.2,7.5,6.3,6.5,9.5c-0.4,1.3-0.9,2.4-1.3,3.7c-0.8,2.5-1.5,5-2.2,7.5c3.9,0.1,8.1,0.9,11.8,0.2c21.5-4.2,41.8-10.6,58.1-23
	c2.3-1.7,3.5-4.2,5.6-6.2c0.5-0.6,1.6-0.8,2.5-1.3c0.5,0.7,1.4,1.4,1.4,2.1c-0.4,1.8-0.8,3.7-1.8,5.4C494.5,33.7,487,45,480.1,56.6
	c-1,1.6-0.5,5.3,1,6.2c11.6,7,21.8,16,36.5,19.5c1.3,0.3,2.7,0.9,3.7,1.5c1,0.7,1.8,1.8,2.5,2.7c-1.3,0.2-2.4,0.7-3.7,0.8
	c-10.6,0.5-21-1.3-31.4-2.8c-7.1-1-14.6,0.3-21.9,0.3c-18.2,0-34.6,9.1-52.9,7.4c-8.4-0.8-16.8-2.5-24.6-5.1
	c-7.1-2.4-8.1-8.2-7.2-13.8c0.5-4-1.3-5.1-6.3-5.1c-18.2,0-33.8,6-48.7,13.2c-4.6,2.2-9.6,5-11.6,8.5c-2,3.3,0,8-0.6,12
	c-0.8,5.2,4.1,6.7,8.1,9.3c12.8,8.3,23.3,18.2,32.3,29.3c11.8,14.7,24.1,29.1,35.7,43.8c17.5,22.1,34.7,44.3,51.9,66.5
	c7.3,9.6,14.6,19.2,21.5,29c4.9,6.9,4.7,14.8-1.9,20c-6.8,5.4-8.5,11.6-10.6,18.2c-3.3,9.7-6.5,19.5-9.6,29.3
	c-2.8,9-6.7,17.8-7.8,26.9c-2,15.3-0.9,30.6,4.6,45.7c4.3,11.8,6.7,24.1,10.4,36.1C451.3,462.5,454,468.9,456.7,475.6 M400.6,73.3
	c0.6-0.1,1.1-0.2,1.6-0.3c-0.1-0.2-0.1-0.4-0.3-0.6c-0.6,0.3-1.3,0.6-2.7,0.9c0,0.3,0,0.6,0,0.9C399.4,73.9,399.7,73.6,400.6,73.3
	 M164.5,1018.8c0.4,0,0.8,0.1,1.3,0.1c-0.5-0.2-0.9-0.4-1.3-1.1c-1.9-5.5-4.2-11-5.7-16.6c-1.8-6.5-3.7-13-4.2-19.6
	c-0.5-7,0.4-14,1.1-21c0.4-3.5-1.6-5.5-4.9-7.3c-1.5-0.8-3-1.7-4.2-2.7c-16.5-13.3-34.4-25.3-45.8-42c-0.4-0.6-1.5-0.9-2.4-1.3
	c-0.4,0.7-1,1.4-0.9,2c0.3,3.2,1,6.4,1.1,9.6c0.6,13.1,2.3,26.1,7.7,38.5c3.7,8.3,7.3,16.7,12.9,24.2c4.3,5.8,11.5,10.2,17.5,15.3
	c5.1,4.3,9.9,8.7,15.2,12.9C155.9,1012.8,160.3,1015.5,164.5,1018.8 M363.2,596.8c0.4,0,0.8,0.1,1.3,0.1c-0.5-0.2-0.9-0.4-1.3-1.1
	c-0.4-3.2-0.5-6.4-1.3-9.6c-3.3-14.4-6.8-28.7-10-43.2c-1.4-6.1-1.9-12.3-3-18.5c-2.3-12.7-4.9-25.4-7.1-38.2
	c-0.9-5.1-0.8-10.3-1.4-15.5c-1.6-13.5-3.9-26.9-4.9-40.4c-1-14.3-1.1-28.7-1.3-43.1c0-4.5-2.5-6.3-7.6-5.9
	c-9.2,0.8-18.4,1.7-27.5,3.2c-2.5,0.4-5.9,2.6-6.5,4.5c-1.1,3.9-0.9,8.2-0.9,12.3c0.1,9.3,0.5,18.7,0.5,28
	c-0.1,5.9-1.1,11.8-1.1,17.7c0,4.6,1,9.1,1.1,13.6c0.1,11.6,0,23.1,0,34.7c0,13.4,0,26.8,0,40.2c0,10.6-0.1,21.3,0.1,32
	c0,1.9,0.5,4.7,2,5.7c5.1,3,10.6,5.4,16.1,8c0.9,0.4,2,0.5,3,0.7c0.1-0.9,0.5-2,0.3-2.9c-0.8-1.6-2.2-3-2.8-4.6
	c-0.5-1.6-1.4-4-0.4-4.9c8.1-7.6,12.5-16.3,13.4-26.2c0.1-0.7,1.4-1.4,2.2-2.1c0.6,0.6,1.8,1.2,2,1.9c0.9,2.3,2.2,4.6,1.9,6.8
	c-0.6,8.5,4.8,15.1,10.1,21.8c1.1,1.4,1.4,3.7,0.8,5.3c-0.5,1.9-2.7,3.5-3.8,5.3c-1.5,2.4-3,5.3,1.3,6.8
	C346.7,591.8,355,594,363.2,596.8 M341.7,930.8c0.9-5.5,0.6-11.4,2.8-16.6c4.7-11.5,4.8-23.2,4.9-35.1c0-1.7,0.8-3.4,0.9-5.1
	c0.6-6.5,1.3-13,1.5-19.5c0-3.4-0.9-6.7-1.1-10.1c-0.1-0.7,0.5-1.4,0.8-2.1c0.9,0.4,2,0.7,2.5,1.3c0.8,1,1.3,2.2,1.6,3.4
	c1.3,4.9,2,10,3.9,14.7c2.9,7.7,6.8,15.1,10,22.7c4.2,10.3,8.1,20.6,15.1,30.1c9.2,12.7,16.7,26.1,31.8,35.6
	c3.5,2.2,7.1,2.9,10.1,1.9c2.4-0.7,4.4-3.7,4.9-5.9c1.6-8.5,3.4-17.1,3.8-25.7c0.4-9.7-0.6-19.4-1.1-29.1
	c-0.5-12.7-2.5-25.2-7.2-37.6c-6.3-16.5-10.9-33.5-15.4-50.4c-4.7-17.4-8.6-34.9-12.8-52.3c-0.9-4.2-3.3-7.4-8.7-8.7
	c-9.7-2.4-19.4-5-29.1-7.4c-2-0.5-4.3-0.7-6.5-1.1c0.9,1.7,1.4,3.7,2.8,5.1c3.7,3.5,8,6.6,11.4,10.2c2.9,3,3.3,5.9,0.3,9.6
	c-8.2,10.1-18.4,19.7-17.1,32.9c0.3,1.5-1.3,3.1-2,4.7c-1.4-1.4-3.4-2.6-4.1-4.2c-1.9-5.2-2.2-11-4.9-15.8
	c-4.3-7.2-10.4-13.6-15.3-20.6c-1.1-1.6-1.9-4.6-0.9-6c3.2-4.2,7-8.1,11-11.9c4.8-4.5,3.9-7.6-3-9.5c-13.8-3.8-27.6-7.6-41.4-11.6
	c-3.4-1-4.1-0.1-3.8,2.3c0.9,9.2,2.2,18.4,2.4,27.6c0.3,6.4-0.9,12.9-1,19.3c-0.3,5.7-0.3,11.4,0,17.1c0.1,4.6,1.1,9.1,1.1,13.6
	c-0.1,7.2-1,14.4-1.1,21.6c-0.6,16.4-0.9,32.7-1.4,49.1c0,1.3-0.3,2.5-0.4,3.8c-0.3,4.6-1.6,9.3-0.6,13.7c3.2,13,7,26,11.3,38.8
	c4.3,12.4,9.6,24.4,27.5,29.1c6.7,1.8,13.3-0.5,14.2-6.2C339.9,941.6,341,936.7,341.7,930.8 M224,851.8c0.5-2,0.6-4.1,1.4-6.1
	c0.5-1.2,2-2.3,3-3.4c0.6,1.5,1.8,2.9,1.9,4.4c0.5,8.1,0.4,16.4,1.4,24.5c1.1,7.9,2.9,15.7,5.1,23.4c1.5,4.9,3,10.2,6.7,14.2
	c3.9,4.2,10.4,7.2,15.8,10.5c3.5,2.1,5.6,1,6.6-2.3c2.2-6.9,3.7-14.1,7.1-20.6c5.1-10,6.1-20.2,5.6-30.8c-0.1-2.3,1-4.7,1.1-7
	c0.9-12.4,2.3-24.8,2.4-37.2c0.3-12.4-0.9-24.7-1-37.1c-0.3-20,0-40.1-0.3-60.1c0-2.8-0.3-6.5-2.4-8.1c-5.1-3.8-11-6.8-17-9.6
	c-5.7-2.7-12.7-1.1-15.8,3.4c-3.7,5.3-8.2,10.4-6.6,17c0.3,1-1.4,2.3-2.3,3.4c-0.9-1.1-2.2-2.1-2.5-3.3c-1.5-3.7-1.8-7.8-4.1-11.2
	c-3.5-5.1-7.7-10.2-12.9-14.3c-3.9-3.1-4.8-3.5,0.4-6.6c0.8-0.5,1.8-0.6,2.5-1.1c2.7-1.8,4.3-3.3-0.1-5.3c-4.6-1.9-8.5-4.7-12.9-6.9
	c-1.9-1-4.2-1.5-6.3-2.3c0.1,1.9,0.3,3.8,0.4,5.7c0.1,1.2,0.1,2.4,0,3.5c-1.3,13.1-2.4,26.2-3.8,39.3c-0.8,6.9-0.4,14-2.8,20.6
	c-4.3,11.5-4.7,23.1-4.8,34.9c-0.1,5-0.5,10.1-1.3,15c-1.5,9-3.4,17.9-4.9,26.9c-1.5,8.4-3,16.8-3.7,25.3c-0.4,4-0.3,9.1,2.5,12
	c6.5,6.9,14.8,12.8,22.4,19.1c3.5,3.1,5.6,2.2,7.8-1.3C218.7,871.5,220.7,861.9,224,851.8 M383.5,399.8c-0.4-4.2-0.6-8.5-1.3-12.7
	c-0.3-1.3-1.4-2.5-2-3.8c-1.8,0.7-4.1,1.1-5.1,2.3c-4.4,4.8-8.1,10-8.1,16.3c0,3.4-0.6,6.7-1.4,10.1c-0.1,0.8-1.5,1.5-2.4,2.3
	c-0.9-0.6-2.2-1.2-2.4-1.9c-0.4-1.5,0-3-0.1-4.5c-0.3-9.8-4.9-18.1-13.8-25c-1-0.8-2.8-1.1-4.2-1.6c-0.4,1.2-1,2.4-0.9,3.5
	c0.3,14.7,0.6,29.4,1.3,44.1c0.1,5.5,0.5,11.1,1.3,16.6c1.5,11.6,3.4,23.2,4.9,34.8c1.1,8.5,1.1,17.2,2.7,25.7
	c3,16.7,6.6,33.4,10,50.1c2.5,12.2,4.9,24.4,7.7,36.5c0.6,2.7,1.9,5.9,4.4,7.5c9.6,6,16.2,3.9,19.5-5.5c0.1-0.3,0-0.7,0.3-0.9
	c0.9-0.8,2-1.5,3-2.3c0.6,1,1.6,1.9,1.8,2.9c0.8,8,7.3,12.7,15.7,15.6c3.5,1.2,8.4,0.4,12.7,0.5c-0.6-2.8-1-5.6-1.8-8.4
	c-3.3-11-7-22-10-33.1c-2.9-10.3-5.2-20.7-7.6-31.1c-1.9-8.2-3.7-16.5-5.1-24.8c-1.3-7.5-1.6-15.1-2.7-22.6
	c-0.4-2.8-1.5-5.5-2.2-8.3c-1.8-8.1-3.8-16.1-5.3-24.2c-1.5-8.2-2.7-16.5-3.9-24.8C386.9,422.4,385.3,411.6,383.5,399.8
	 M119.6,744.3c3.7,12.3,6.2,24.9,11,36.9c5.3,13.2,12,26,19.1,38.7c5.4,9.7,12.4,19,18.6,28.4c0.6,1,1.5,1.8,2.3,2.7
	c0.9-1.1,2.5-2.2,2.7-3.5c0.8-5.3,0.6-10.7,1.5-16c1.9-11.5,4.6-22.9,6.1-34.4c1.8-12.3,3.4-24.5,3.8-36.8
	c0.3-13.4,2.8-26.6,4.9-39.8c2.2-13.8,1.8-27.8,2.9-41.6c0.3-3.5-1.5-5.7-4.6-7.6c-6.5-4.1-12.8-8.4-19.5-12.3
	c-4.1-2.5-8-6.3-13.8-0.8c-3.2,2.9-8.7,0.1-9.1-4.1c-0.4-2.9,0-6.6-2.2-8.7c-5.1-5-11.3-9.3-17.1-13.8c-0.5-0.4-1.3-0.8-1.8-1.1
	c-0.1,0.4-0.4,0.9-0.5,1.3c-1.3,11.8-2.4,23.5-3.8,35.3c-0.8,6-2.2,12-2.8,18c-1,8.8-2.5,17.7-2.3,26.5
	C115.5,722.4,117.7,733.1,119.6,744.3 M467,536.8c-3.5-11.5-7.1-23-10.8-34.5c-3-9.6-6.6-19.1-9.4-28.8
	c-4.2-14.3-8.1-28.7-11.9-43.1c-3-11.4-5.7-22.8-8.5-34.2c-0.8-3.6-2.4-6.8-7.2-7.8c-7.5-1.6-15.1-3.1-22.7-3.9
	c-3.3-0.4-7.7,0.1-6.8,4.8c1.5,9,2.2,18.2,3.9,27.2c2.3,12.1,5.6,24,5.1,36.3c-0.1,3.6,1.4,7.2,2.2,10.8c2.7,11.4,5.6,22.9,7.7,34.4
	c1.5,7.3,1.4,14.8,2.8,22.1c2.2,11.9,4.8,23.7,7.6,35.5c2.3,10,4.7,20.1,7.6,30c2.4,8.1,5.7,16.1,8.9,24c0.6,1.5,2.9,3.3,4.8,3.6
	c7.3,1,14.8,2,22.3,2s14.9-1.6,22.4-1.8c5.9-0.1,5.6-3,4.7-5.6c-2.5-7.7-6.1-15.3-8.6-23.1c-3.3-10.1-5.9-20.4-9-30.6
	C470.5,548.7,468.8,543.3,467,536.8 M437.3,747.3c-7.6,0-15.2,0-22.8,0c-2.3,0-4.6-0.1-7-0.1c0,2.3,0,4.6,0,7c0,0.1,0,0.3,0,0.5
	c2.5,8.1,5.4,16.2,7.6,24.5c2.8,11.3,4.9,22.7,7.7,34c2.2,8.8,5.3,17.6,7.5,26.5c4.1,17.3,10.8,33.9,20.9,49.6
	c8,12.1,16.1,24.1,24.2,36c0.8,1.2,2.3,2,3.4,3c0.8-1.4,2.2-2.8,2-4.1c-0.6-10.7-1.3-21.5-2.4-32.2c-0.6-6-1.5-12.1-3.5-17.8
	c-3.3-9.4-7.8-18.4-11.5-27.7c-1.8-4.6-2.8-9.5-3.8-14.2c-0.3-1.3,0.6-2.7,0.9-4c1.4,1.3,3.3,2.4,4.1,3.8c1.9,3.9,3.7,7.8,5.1,11.8
	c5.7,16.7,14.9,32.2,26.6,46.8c7,8.8,14.2,17.3,21.4,26c0.9,1,2.3,1.6,3.5,2.5c0.5-1.5,1.6-3,1.5-4.4c-0.4-2.3-1.8-4.5-2.3-6.7
	c-2.4-9.6-4.1-19.3-7.2-28.7c-3.2-9.9-7.5-19.5-11.9-29.1c-6.5-14-12.7-28.2-20.4-41.8c-10.1-17.6-13.4-36.6-20.3-54.8
	c-0.6-1.8-3.5-3.8-5.7-4.2C449.3,748.5,443.6,748.3,437.3,747.3 M225.3,447.8c-0.4,20.9-0.9,41.7-1.3,62.6c-0.1,7.9,0,15.9,0.1,23.8
	c0,1.1,1,2.5,2.2,3.3c4.6,3.1,9.4,6.1,14.1,9.2c12.2,7.9,25.6,14.4,39.2,20.6c3,1.4,5.4,2.1,5.3-2.2c-0.6-15.7-0.9-31.4-1.4-47.1
	c-0.8-21.2-1.6-42.4-2.5-63.6c-0.4-10.4-1.3-20.8-1.1-31.1c0.3-10.5,1.6-20.9,2.3-31.4c0.1-1.5-1.3-4.4-2-4.4
	c-2.4,0.1-5.6,0.6-7.1,1.9c-1.8,1.6-1.9,4.3-3.4,6.2c-6.6,8.4-15.6,15.9-14.1,27c0.1,1.1-2.2,2.4-3.3,3.5c-0.9-1.3-2.2-2.6-2.8-4
	c-1.9-3.8-3.4-7.6-5.2-11.4c-1.4-3-4.4-5.7-8.2-4.1c-3.4,1.4-7.5,4.7-7.8,7.6C226.5,425,226.1,435.9,225.3,447.8 M555,901.3
	c1.3,1.3,2.3,2.7,3.7,3.8c1.3,1.1,2.9,2,4.3,2.9c0.5-1.7,1.6-3.4,1.4-5c-1.4-10.3-3.2-20.6-4.9-30.8c-1.4-7.7-2.8-15.4-4.7-23
	c-1.9-7.8-4.6-15.5-6.6-23.3c-1.9-6.6-2.5-13.5-5.1-19.9c-7-17.3-14.7-34.5-22.3-51.7c-4.7-10.6-4.7-10.6-18.4-7
	c-2.7,0.7-4.6,1.8-3.8,4.4c1.1,3.9,2.5,7.8,3.4,11.8c0.3,1.8-0.6,3.6-1,5.4c-1.5-0.9-3.4-1.6-4.4-2.8c-4.1-4.6-7.6-9.5-11.8-14.1
	c-2.5-2.7-5.8-5.2-10.8-2.8c-3.8,2-1.9,4.4-0.8,6.8c3,7.2,6.3,14.4,8.9,21.6c5.3,15.2,9.4,30.6,15.4,45.5
	c5.3,13.2,11.4,26.3,19.1,38.7C526,876.6,539.1,889.5,555,901.3 M247.4,334.3c-1.3,1.7-2.3,3.7-4.1,5.1c-4.6,3.9-10.1,7.2-14.1,11.4
	c-12.5,13.8-24.7,27.9-36.7,42c-3.3,3.7-5.7,7.8-8.7,11.6c-0.6,0.8-2.5,1.1-3.8,1.7c-0.1-1.1-0.6-2.2-0.3-3.1c1.5-3,3.2-6,5.1-8.8
	c14.6-22.1,33.8-41.4,55.4-59.4c4.3-3.5,8-7.6,11.4-11.7c0.9-1-0.3-3.2-0.5-4.8c-1.5,0.8-3.2,1.5-4.4,2.6c-8.1,6.9-16.1,14-24.2,21
	c-1.8,1.5-4.6,2.3-6.1,3.9c-8.6,9.3-17.5,18.6-25.4,28.2c-7.8,9.5-15.1,19.4-22,29.3c-7.6,11.1-6.2,23.9-9.5,35.8
	c-0.3,0.9,1,2,1.5,3c0.9-0.6,2.2-1,2.7-1.7c1.6-2.5,2.8-5.1,4.6-7.5c1-1.4,2.9-2.4,4.3-3.6c-0.1,1.8,0,3.6-0.5,5.2
	c-0.6,1.7-2.3,3-2.8,4.6c-1.8,5.1-3.4,10.3-4.7,15.5c-0.3,1.1,1.3,2.5,1.9,3.7c1-1.1,2.5-2.2,3-3.4c1.9-6,3.3-11.9,5.2-17.8
	c0.5-1.4,2.2-2.4,3.3-3.6c0.5,1.6,1.1,3.3,1.6,4.9c0,0.4-0.9,0.8-0.9,1.2c-2.3,8.8-4.6,17.5-6.5,26.4c-0.4,1.3,1.5,2.8,2.3,4.3
	c1.3-1.3,3.3-2.5,3.7-4c0.9-2.9,0.8-6,1.5-9c1-4.5,2.3-8.9,3.8-13.3c0.4-1,2.2-1.7,3.3-2.5c0.1,1.2,0.5,2.4,0.4,3.5
	c-0.8,4.3-1.8,8.5-2.4,12.7c-0.3,1.5,0.3,3,0.4,4.5c0.8-1.2,1.4-2.4,2-3.6c7.1-12.2,14.1-24.4,21.3-36.5
	c6.5-10.7,18.4-17.9,28.1-26.4c4.4-3.9,8.9-8.4,11.1-13.3c4.1-8.7,5.8-17.8,4.3-27.4c-0.9-6.5,0.8-13.3,1-20c0-1.2-0.9-2.5-1.4-3.7
	C250.4,332.1,249.3,333,247.4,334.3 M317.7,706.8c-1.6-3.6-3.8-7.1-4.9-10.8c-2.4-8.3-4.6-16.6-6.3-24.9c-2-8.8-3.4-17.6-5.3-26.3
	c-0.3-1.3-1.5-2.7-2.9-3.4c-5.7-2.8-12.3-4.6-17.3-7.9c-12.2-8.1-26.6-12.7-40.6-17.8c-1.1-0.3-4.4,0.8-4.6,1.6
	c-0.9,3.4-1.9,7.1-1.3,10.5c2,11.5,4.6,23,7.5,34.5c5.2,20.6,19.2,35.9,44.1,44.4c12.8,4.4,25.4,8.7,38.1,13.1
	c0.9,0.3,1.9,0.5,2.9,0.4c0.4,0,1-1.2,0.9-1.5C324.8,714.9,321.5,711.1,317.7,706.8 M425.9,738.3c13.7,2.8,27.5,3.5,41.5,2.8
	c1.1,0,2.4-2.8,3.3-4.4c0.3-0.7-1.1-1.7-1-2.6c1.4-18.5-5.8-36.3-7.7-54.5c-0.4-3.3-2.5-5.4-7.7-5.4c-7,0-14.1-0.1-20.9-1.2
	c-15.8-2.5-31.6-5.5-47.2-8.8c-6.7-1.4-5.8,0.7-4.4,4.2c2,5,4.4,10,5.4,15.2c1.5,8.1,2.7,16.2,8.9,23.1
	C405.6,717.2,415.1,727.8,425.9,738.3 M351.2,253.3c-1,2.7-2.8,5.3-3,8c-0.5,8.9-0.5,17.9-0.6,26.9c-0.3,24.6-0.5,49.2-0.5,73.9
	c0,1,2.3,3,3.8,3.1c10.5,0.6,21.1,0.6,31.6,1.2c5.2,0.3,6.1-1.8,6.2-5.1c0.1-4.9,0.6-9.7,1.1-14.6c1.6-14.4,3.4-28.8,5.1-43.3
	c0.9-7.5,1.6-15.1,2.7-22.6c0.6-5.2,1.5-10.4,2.4-15.7c0.6-3.6-0.4-6.3-5.8-6.8c-3.7-0.4-7.3-1.4-11-1.8
	C372.9,255.4,362.7,254.4,351.2,253.3 M594.9,678.8c0.5-0.5,1.1-1,1.3-1.6c2.5-8.8,5.3-17.6,7.6-26.5c2-7.9,3-15.9,5.2-23.8
	c3.2-12-16.3-36.6-31-40.5c-16.8-4.6-31.3-14-50-14.5c-12.9-0.4-26-1.2-39-1.4c-1.8-0.1-3.5,1.9-5.4,3c2,0.9,3.9,2.6,5.9,2.7
	c4.6,0.1,9.4-1,13.9-0.8c8.1,0.3,16.2,1.2,24.3,1.9c17.8,1.5,32.7,8.5,47.3,15.8c9.5,4.7,14.1,12.6,19.7,19.5
	c5.4,6.6,1.8,19.1-5.2,23.5c-11.3,7.3-23.3,13.5-36.6,18.3c-2,0.7-4.6,2.6-4.7,4.2c-0.9,7.1-2.5,14.5-1.1,21.5
	c2.3,11.1-0.8,21.7-2.7,32.4c-0.8,5-2.8,9.8-3.9,14.7c-0.5,1.8,0,3,2.9,1.3c6.1-3.4,13.2-6.1,18.6-10
	C577.2,707.9,589.3,695.5,594.9,678.8 M136,549.3c-7-7-14.1-14-20.8-21.2c-4.3-4.5-8.1-9.3-12.4-13.9c-0.8-0.8-2.5-1.1-3.8-1.6
	c-0.5,1-1.5,2-1.5,3c0.3,5.1,0.8,10.2,1.1,15.4c0.1,1,0,2,0.3,2.9c1.1,4.5,3.4,8.9,3.4,13.3c0,11.6,1.6,22.9,3.5,34.3
	c1.8,10.4,4.7,20.6,11.1,29.4c5.7,7.7,14.2,14.2,22.2,20.7c6.3,5.2,13.7,9.8,20.8,14.5c1.3,0.8,3.3,0.8,4.9,1.2
	c0.3-0.8,1-1.8,0.8-2.5c-1.9-5.7-4.7-11.3-6.1-17c-2.5-10.8-4.9-21.6-6.2-32.4c-1-8.8-0.1-17.7-0.3-26.5c0-1.4-0.3-3-1.3-4
	C146.9,559.8,141.7,554.8,136,549.3 M226.5,632.8c0.5-4.7,1.1-9.4,1.3-14.1c0.1-3.9,2.7-8.7-3.4-11.3c-16.3-6.9-31.1-15.4-45.1-24.9
	c-2.3-1.5-5.1-2.5-7.1-4.1c-2.3-1.7-4.2-3.8-6.2-5.8c-0.5,2.9-1,5.7-1.4,8.5c-0.1,0.7,0.1,1.3,0.3,1.9c0,4.5,0.3,9,0,13.5
	c-0.3,5.3-2.4,10.7-1.4,15.9c2.2,10.3,4.8,20.6,9,30.5c2.7,6.4,5.4,13.4,13.9,17.5c15.1,7.1,29.9,14.6,44.9,21.9
	c2.4,1.1,5.4,1.5,8.1,2.3c-0.6-2.4-1-4.9-2-7.1c-3.9-8.9-8.2-17.7-8.4-27.3C228.9,644.6,227.8,638.9,226.5,632.8 M478.4,734.8
	c-1.8,7.1-1.4,7.4,7.7,5.5c0.8-0.2,1.5-0.5,2.4-0.5c9.9-1.2,20-1.9,29.6-3.8c3-0.6,7,0.7,10-3c6.8-8.1,7.7-17.4,9.5-26.3
	c1.9-10,1.3-20.3,1.5-30.5c0-3.5-0.4-7.1-1.4-10.5c-0.6-2.4-2.3-4.5-6.6-2.7c-3.2,1.4-6.8,2.3-10.3,3.3c-16.5,4.8-33.2,8.1-50.8,8.1
	c-1,0-2.8,1.2-2.7,1.6c1.8,8.9,4.1,17.7,5.8,26.5C475.3,712.9,476.8,723.4,478.4,734.8 M89.8,418.8c-0.8,1.4-1.9,2.7-2.4,4.2
	c-4.8,11.6-9.2,23.3-14.1,34.9c-6.2,15-7.6,30.6-8.6,46.1c-0.6,9.3,0,18.7,1.3,28c1,8.5,2.5,17.1,5.7,25.1
	c2.5,6.9,7.7,13.2,11.8,19.6c4.6,7,9.1,14,13.9,21c0.9,1.4,2.8,2.3,4.3,3.5c0.3-1.3,0.8-2.7,0.8-4c0-1.1-0.5-2.1-1-3.2
	c-6.2-13.6-9.9-27.5-10.4-42c-0.3-6.9-1.5-13.8-1.6-20.6c0-5.8,0.9-11.7,1.6-17.5c0.6-4.9,3.7-10.1,2.2-14.5
	c-2.8-8.5-6.8-16.5-6.1-25.5c0.8-9.2,0.5-18.3,0.8-27.5c0-1.9,0-4,0.9-5.7c7-13.5,12.9-27.5,21.6-40.3c7.1-10.4,17.5-19.4,26.7-28.8
	c4.6-4.6,10-8.8,15.1-13.1c14.4-12.1,28.9-24.1,43.3-36.2c0.9-0.7,1.9-1.2,2.9-1.8c-1.9-0.3-4.3-1.4-5.6-0.9c-4.8,2-10,4.1-13.9,7.1
	c-7.6,5.6-14.4,11.7-21.5,17.8c-9.1,7.8-19.1,15.1-27.1,23.6c-12.2,13-22.9,26.8-34.1,40.3C93.7,411.4,92,414.7,89.8,418.8
	 M389.6,733.7c5.9,3.3,5.9,3.3,16.5,2.6c0.9-0.1,1.9-0.7,2.8-1c-0.5-0.7-1-1.4-1.6-2c-1.9-1.5-4.6-2.7-5.8-4.5
	c-12.5-19.6-27-38.6-26.8-61.7c0-2.3-0.1-5.5-5.7-6c-7.1-0.5-14.1-2-20.6-3.9c-11.5-3.4-22.7-7.5-34.1-11.1
	c-1.6-0.5-4.6-0.7-5.3,0.1c-1.1,0.9-1.6,3.1-1.1,4.5c7.8,20,15.6,40.2,24.2,60c2.7,6.1,7.3,11.8,16.1,14c7.1,1.8,14.1,3.9,21.1,5.5
	c3.8,0.9,8,1.1,11.9,0.6L389.6,733.7z M292.3,257.8c-0.4,9.4-1,18.8-1.1,28.2c-0.3,8.6-0.3,17.2,0,25.9c0.3,16.6,0.8,33.3,1.1,50
	c0.1,2.9,1.3,4.7,5.7,4.5c11.1-0.5,22.4-0.6,33.5-1.1c8.5-0.4,8.9-0.9,8.9-7.5c0.4-21.5,1-43,1.3-64.5c0.1-12.5-0.1-25,0.1-37.4
	c0-3.4-1.6-4.5-5.6-4.6c-11.9-0.3-23.8-0.7-35.7-1C293.1,250.2,292.5,250.8,292.3,257.8 M246.1,257.3c-3,0.7-6.1,1.1-9,2.1
	c-3.5,1.2-8.5,2.1-10,4.3c-2.3,3.7-0.6,7.9,4.1,10.8c1.5,1,3.3,2.1,4.3,3.5c4.8,5.9,8.6,12.3,14.1,17.8c9.6,9.7,11.6,20.8,12.4,32.4
	c1,15-1.1,29.7-4.9,44.3c-0.1,0.5,0.5,1.7,0.6,1.7c7.3-1.3,14.6-2.6,21.9-3.9c4.4-0.8,7.6-4.8,6.5-8.4c-0.3-1.1-1.1-2.1-1.1-3.1
	c-0.9-31.7-1.8-63.4-2.7-95.1c-0.1-2.7-0.3-5.5-1.4-8c-0.6-1.4-3.5-3.4-4.9-3.2C266.3,253.8,256.9,255.6,246.1,257.3 M30.9,702.3
	c-0.5,0.8-1.1,1.6-1.8,2.4c-5.7,8.2-11.4,16.3-12.8,25.8c-1.1,6.7-3.4,13.3-4.6,20c-1.6,9.4-3.4,18.7-4.1,28.1
	C7.1,784.8,8,791,8.7,797.2c1,9.8,1.9,19.6,3.8,29.2c1.9,9.8,4.3,19.6,7.7,29c3.3,9,8.2,17.6,12.5,26.4c0.5,1,1.9,1.6,2.9,2.4
	c0.8-1,2-2.1,1.9-3.1c-0.8-7.2-2.2-14.4-2.7-21.6c-1-13.1-3.5-26.4-1.5-39.2c1.1-7.1,0-13.3-1.1-19.8c-2.3-12.7-5.1-25.4-7.1-38.1
	c-0.8-5.5-0.3-11,0-16.5c0.1-7-0.8-14.2,1.1-20.8c3.7-12,14.4-21.2,23.7-30.7c4.9-5.1,11.8-9.3,18.1-13.5c9.1-6,18.7-11.7,28.1-17.6
	c6.3-4,12.7-8.2,18.7-12.5c1-0.7,0.9-2.6,1.3-4c-1.4,0.5-3,0.9-4.3,1.5c-1.9,0.9-3.5,2.2-5.4,3c-24.8,10.8-46.8,24.7-66.5,40.9
	C36.8,695,34.5,698.6,30.9,702.3 M320.8,61.3c-5.6,0.9-7.7,3.6-7,8.1c0.4,2.1,0,4.3,0,6.5c0.1,2.1,0.4,4.2,0.5,6.3
	c2-1.2,4.2-2.5,6.2-3.7c0.8-0.4,1.6-0.8,2.5-1.2c13.9-7,27.8-13.2,45.2-14.2c12.7-0.7,24.8-1.8,37,2.6c2.8,1,7.3,0.6,10.4-0.6
	c2.8-1,2.3-4,2.5-6.8c0.6-7.7-5.2-15.8,1.6-23.5c2-2.4,1.4-6.2-4.9-6.6c-7.3-0.4-14.8-1.5-22.2-2.1c-6.2-0.5-12.8-1.7-18.6-0.6
	c-13.7,2.7-27.1,6-40.3,10c-6.5,2-12.3,5.7-18,9c-1.6,0.8-1.9,3.1-2.8,4.7c2.3-0.4,4.7-0.6,6.8-1.2c4.3-1.1,8.4-2.8,12.7-3.6
	c5.2-1,10.6-1.3,16-2.2c2.9-0.4,5.6-1.6,8.4-2.4c-2,1.9-3.9,4-6.2,5.8c-1.1,0.9-3.2,1.6-4.7,1.6c-10,0.1-19.5,1.8-28.4,5.2
	c-2,0.8-3.4,2.6-5.1,4c2.3,0,4.8,0.4,7-0.1c6.7-1.5,13.4-3.3,20.1-5c6.1-1.6,13.2-2.3,18-5.3c5.1-3.3,9.9-3.8,15.8-3.7
	c5.4,0,10.9-0.5,16.3-0.5c1.3,0,2.5,1.3,3.8,2c-1.4,0.8-2.8,2.3-4.2,2.4c-5.2,0.3-10.4-0.2-15.4,0.2c-3.4,0.2-7,1-10.3,2.1
	c-4.7,1.6-8.7,4.2-13.5,5.5c-7.1,1.9-14.6,2.8-21.8,4.4C326,58.9,323.9,60,320.8,61.3 M440.5,332.8c0.9-3.7,1.6-7.4,2.5-11.2
	c2.5-10.6,5.2-21.3,7.6-32c0.4-1.7,0.5-4.1-0.8-5.2c-4.8-4.5-9.6-9.6-15.7-12.9c-6.7-3.5-15.1-5-22.5-7.6c-3-1.1-4.8-0.7-5.2,1.9
	c-1,5.2-1.9,10.4-2.5,15.7c-1,7.2-1.8,14.4-2.7,21.6c-1.6,13.8-3.3,27.6-5.1,41.4c-0.6,4.9-2.2,9.7-2.3,14.7c-0.1,3-2.9,7.6,3.3,9
	c8.5,2,17.2,3.4,25.8,5.1c4.2,0.9,5.3-1.4,6.1-3.5C432.7,357.6,436.3,345.5,440.5,332.8 M44.2,861.8c0.9,4.2,1.6,8.5,2.5,12.7
	c2.5,10.5,4.7,21,7.7,31.4c4.1,13.6,11.3,26.3,22.9,36.9c6.5,5.9,13.5,11.3,17.3,18.8c0.4,0.8,2.3,1.1,3.4,1.7c0.1-1.4,1-2.9,0.5-4
	c-6.5-14.3-6.2-29.2-7.6-44c-0.5-6.3-0.6-12.7-1.4-19c-0.1-1.6-1.4-3.3-2.7-4.6c-4.4-4.9-9.6-9.4-13.5-14.6
	c-6.1-8.3-10.5-17.2-17-25.3c-5.4-7-9.2-14.1-9.9-22.4c-0.1-1.3-1.9-2.6-2.8-4c-1.1,1.4-3.2,2.8-3.2,4.2c-0.3,3,0.6,6,1,9.1
	C42.6,846,43.5,853.4,44.2,861.8 M167.7,259.3c-2.4,3.2-4.9,6.4-7.1,9.7c-4.6,6.8-9.1,13.7-13.3,20.6c-0.6,0.9,0.4,2.5,0.8,3.7
	c1.3-0.6,3-1,3.8-1.8c2-2.6,3.7-5.5,5.7-8.1c9.7-13.5,19.6-26.9,29.5-40.4c3.8-5.2,7.3-10.6,11.3-15.7c0.6-0.9,2.5-1.2,3.8-1.8
	c-0.1,1-0.1,2.2-0.6,3.1c-5.7,9.9-11.6,19.8-17.3,29.8c-2.3,4-3.9,8.3-5.6,12.6c-0.4,0.9,0.8,2.2,1.1,3.3c1.3-0.8,3-1.3,3.8-2.4
	c3.4-5.2,6.2-10.6,9.7-15.7c11-15.3,22.8-30.2,33.2-45.7c8.1-12.2,15.4-24.7,24.9-36.3c7.3-8.9,15.1-17.7,22.3-26.7
	c2.4-2.9,4.2-6.2,6.1-9.5c0.4-0.7-0.4-1.8-0.6-2.7c-1,0.5-2.3,0.8-3,1.5c-7.6,6.9-15.3,13.8-22.7,20.9c-7.8,7.6-15.8,15.1-22.9,23
	c-11.8,13.2-23.4,26.6-34.3,40.3C186.4,233.3,177.5,246.2,167.7,259.3 M415.1,228.8c-5.1-6.7-10-13.4-15.2-20
	c-9.4-11.8-19.4-23.2-28-35.4c-8.2-11.5-17.8-22-28.5-32.1c-1.6-1.5-5.1-1.9-7.7-2.8c0.5,2,0.6,4,1.6,5.8
	c4.3,8.5,14.8,13.8,18.1,23.1c1.6,5.1,6.3,9.5,9,14.5c5.6,11.1,10.9,22.4,16.2,33.7c4.4,9.7,9.5,19.3,12.7,29.3
	c1.9,6.1,5.1,10,12.8,11.4c2,0.4,4.2,0.5,6.2,0.7c-0.8-1.5-1.1-3.3-2.3-4.5c-7.8-8-11.3-17.7-16.3-26.7c-5.1-8.7-9.6-17.5-14.3-26.3
	c-0.6-1.2-0.4-2.7-0.5-4c1.1,0.8,2.7,1.4,3.4,2.5c8.1,11.3,16.3,22.6,23.8,34.1c5.7,8.8,10.4,18,15.7,26.9c0.5,1,1.9,2,3.2,2.2
	c6.6,1.3,12.4,3.6,17,7.7c0.5,0.4,1.9,0.3,2.9,0.4c-0.1-0.8-0.1-1.7-0.5-2.4c-2.4-4.3-4.4-8.9-7.6-12.9
	C430.1,245.6,422.9,237.5,415.1,228.8 M270.8,193.8c0.5-1,0.9-2,1.3-3.1c5.3-14.2,10.6-28.4,18.9-41.8c1-1.7,1.3-3.7,1.3-5.5
	c0-1.1-1.4-2.1-2.2-3.1c-0.9,0.7-2,1.4-2.7,2.2c-2.3,3.1-4.3,6.4-6.6,9.4c-9.7,12.8-19.7,25.5-29.5,38.4
	c-10.1,13.5-19.7,27.2-29.9,40.7c-8.2,10.8-16.8,21.4-25.2,32.2c-0.6,0.8-0.6,2-0.9,2.9c0.9,0,2.3,0.3,2.9,0
	c6.7-3.8,15.4-5.7,19.4-12.2c1.8-2.8,3.4-5.6,5.3-8.3c6.7-9.6,13.8-19.1,20-28.9c5.9-9.2,11-18.7,16.5-28.1c0.5-0.8,1.4-1.5,2-2.2
	c-0.1,1,0,2.1-0.3,3c-1.4,3.8-3,7.4-4.2,11.2c-0.8,2.1-0.6,4.4-1.4,6.5c-2.7,6.5-5.4,12.9-8.4,19.3c-3.5,7.7-7.5,15.2-11,22.9
	c-0.4,0.8,0.6,2,1,3c4.2-1.3,8.9-2.2,12.3-4.2c1.9-1.1,1.8-4.2,2.5-6.4c2.4-7.1,4.7-14.2,7.5-21.1
	C263.1,211.9,267,203.4,270.8,193.8 M216.4,495.8c0-2,0-4,0-6c0-10-0.5-20,0.1-30c0.8-12.2,2.5-24.5,3.7-36.7
	c0.1-1.3-0.9-2.5-1.3-3.8c-1.1,1.1-2.5,2-3.3,3.2c-2.7,4.3-5.2,8.6-7.6,13c-5.4,10.2-10.8,20.4-16.1,30.7c-0.5,0.8-1,1.9-0.6,2.7
	c1.9,3.7,4.3,7.2,6.1,11c2.3,4.8-0.1,8.8-6.3,10.9c-9.4,3.3-11.1,10.1-4.4,16.5c2.5,2.4,4.4,5.3,7.2,7.6c4.8,4.1,9.9,8.2,15.2,11.9
	c1.5,1.1,4.8,3.1,6.1-0.4c0.9-2.6,1.1-5.4,1.3-8.1C216.5,511.1,216.4,504,216.4,495.8 M281,189.8c-1.6,5.6-3.3,11.3-5.1,16.8
	c-3.7,11.5-7.6,22.9-11.3,34.3c-0.4,1.3,0.1,3.8,1.1,4.3c4.2,1.8,11-0.4,12.5-4.3c2.5-6,5.2-12.1,6.3-18.4c2.3-12,3.4-24.2,5.3-36.3
	c0.4-3.1,1.4-6.2,2.3-9.2c0.4-1.3,1.5-2.4,2.2-3.6c0.6,1.5,1.8,3,1.6,4.5c-0.1,4.2-0.9,8.3-1,12.5c0,2.7,1.8,5.7,1,8.1
	c-2.8,8.1-3.2,16.1-1.3,24.3c0.9,3.8,0.4,7.8,0.1,11.6c-0.8,8.6-0.4,8.9,7.6,9c5.7,0,6.6-2.9,6.3-6.1c-1.1-11.6-2.9-23.1-3.7-34.7
	c-0.4-6.8,0.9-13.7,1.1-20.6c0.5-13.5,0.9-27,1.1-40.6c0.1-1.3-1.3-2.7-2-4.1c-1.4,1.3-3.5,2.3-4.1,3.8c-1.5,5-2.4,10.1-3.9,15.2
	c-1.8,6.1-1.9,12.9-10.1,16.6c-1,0.5-1.9,1.7-2.2,2.7C283.6,180,282.3,184.4,281,189.8 M489.8,75.8c-6.2-1.1-11.5-3.3-15.7-7.4
	c-1.8-1.7-4.3-2.9-6.6-4.2c-3.9-2.2-3.3-4,0.3-5.9c2.3-1.2,4.3-2.5,6.1-4c0.6-0.6,0.4-1.8,0.5-2.7c-0.8,0.3-1.6,0.5-2.4,0.7
	c-9.1,2.3-16.5,8.9-27.2,7.2c-2.2-0.3-4.3-0.3-6.5-0.5c1.8-0.9,3.5-2.1,5.4-2.7c9.2-3.1,18.6-5.7,27.6-9c5.8-2.1,12.4-4.1,14.1-10
	c0.3-0.9,0.3-1.8,0.4-2.7c-1.1,0.4-2.4,0.7-3.5,1.2c-3.4,1.8-6.6,4.2-10.4,5.4c-13.9,4.6-27.8,9-41.9,13c-3.4,1-4.3,2-4.8,4.7
	c-0.9,4.1-2.7,8.2-5.1,11.9c-2.9,4.6-7.1,8.6-13.7,10.6c-1.6,0.5-2.7,2.5-3.9,3.8c1.8,0.4,3.7,1.2,5.3,1c8.7-0.9,17.5-2.1,26.1-3.2
	c13.4-1.6,26.7-3.4,40.3-4.6c5.8-0.4,11.9,0.6,18,0.9c0.9,0,1.9-0.3,2.8-0.5c-0.8-0.5-1.5-1-2.4-1.5C491.9,77,491.2,76.6,489.8,75.8
	 M334.1,173.8c0.5,2.5,0.8,5.1,1.3,7.6c2,9.7,3.9,19.4,5.9,29.1c1.8,8.4,3.5,16.8,5.6,25.1c0.8,3.2,1.6,6.7,4.1,9.1
	c1.5,1.5,5.9,1.1,9.1,1.6c0.3-1.6,1-3.3,0.5-4.7c-1.5-4.8-3.8-9.4-5.4-14.2c-4.1-12-8.2-24-12-36c-0.5-1.9,0.5-4.1,0.8-6.1
	c1.4,1.9,3.4,3.7,4.1,5.7c2.7,7,4.1,14.3,7.2,21.2c4.1,8.9,8.9,17.7,14.3,26.3c2.8,4.4,7.3,8.2,11.5,12.1c0.8,0.7,3,0.5,4.6,0.6
	c-0.3-1.1-0.4-2.3-0.8-3.4c-2-6.2-8.2-10.7-9.1-17.8c-0.8-6.3-5.4-12.4-8.6-18.5c-4.3-8.4-8.6-16.8-13.3-25.1
	c-4.2-7.5-9-14.8-13.2-22.2c-4.1-6.9-7.6-13.8-11.5-20.7c-0.5-0.9-1.3-1.7-2.2-2.1c-1.3-0.5-3.5-1.9-2.9,1c0.5,2.4,0.6,4.8,1.4,7.1
	C327.8,157.5,334.5,164.6,334.1,173.8 M581.6,908.3c-1.1,0.2-2.4,0.3-3.4,0.7c-17.2,7.4-33.8,15.9-51.6,22.1
	c-24.8,8.6-50.1,16.3-75.8,22.9c-16.8,4.4-34.7,6.7-52.2,9.2c-16.3,2.2-32.8,3.5-49.2,5c-3.8,0.4-3.2,1.9-1.6,3.1
	c1.5,1.1,3.9,2.1,5.8,1.9c17.5-1.5,34.9-3.1,52.4-5.1c10.8-1.3,21.5-2.9,31.9-5.4c21.4-5.1,42.3-11,63.5-16.3
	c19.2-4.8,36.6-12.4,53.9-20.2c6.6-3,13.7-5.3,20.5-7.9c2.9-1.1,6.2-1.6,8.5-3.2c5.8-4.2,11.3-8.8,16.8-13.2
	c0.9-0.7,1.5-1.7,2.2-2.5c-1.4-0.3-3-1-4.3-0.7c-2.2,0.6-4.2,1.7-6.1,2.8C589.3,903.5,585.8,905.7,581.6,908.3 M314.5,157.3
	c0.6,6,1.9,11.9,1.8,17.9s-1.9,12-2.3,18.1c-0.3,4.5,0.9,9,1.1,13.6c0.5,7.1,1,14.3,1.3,21.5c0.1,2.6-0.4,5.2-0.5,7.8
	c0,2.5,0.1,5,0.5,7.4c0,0.3,3,0.8,3.2,0.6c1.1-2.4,3-4.9,3-7.4c0-11-0.8-22-1-33c0-1.1,1.1-2.3,1.8-3.4c0.6,1,1.6,2.1,1.9,3.2
	c1,6.2,1.8,12.4,2.5,18.6c0.9,6.4,1.9,12.8,2.5,19.2c0.4,3.7,3.8,3,6.6,3.2c4.8,0.2,3.9-2.7,3.5-4.7c-1.5-6.8-3.4-13.5-5.1-20.3
	c-2-8.6-4.4-17.2-6.2-25.9c-2-9.2-3.2-18.6-5.3-27.8c-1.6-7.1-4.1-14.2-6.6-21.3c-0.3-0.9-2.3-1.5-3.5-2.3c-0.4,1-1.1,2-1,2.9
	C313,149.1,313.5,153,314.5,157.3 M344.9,370.3c-8.6,0-17.2-0.1-26,0.1c-5.7,0.1-12-0.6-17,1.2c-12.8,4.4-26.6,4.5-39.6,7.6
	c-7,1.7-11.4,5.1-11.8,10.5c0,0.5,0.3,0.9,0.4,1.4c0.6-0.3,1.3-0.6,1.8-1c2.5-1.6,4.7-4,7.6-4.6c12.2-2.7,24.3-5.4,36.8-7
	c11.3-1.5,22.8-1.5,34.3-2.2c1.6-0.1,3.3,0,5.1,0c9.5,0,19.1-0.5,28.6,0.1c11.4,0.8,22.7,2.4,33.9,4c8,1,15.9,2.6,23.9,3.9
	c1.4,0.3,2.9,0.6,4.4,0.9c0.1-1.7,0.8-3.4,0.3-4.9c-0.3-0.8-2.2-1.6-3.5-1.9c-3.4-0.8-7-1.1-10.4-1.8c-9.5-1.7-18.7-4.3-28.2-5.1
	C372.5,370.4,359.3,370.6,344.9,370.3 M178.4,285.8c0.5,1,1.1,2,1.3,3.1c0.9,7.7,1.6,15.4,2.7,23.1c0.1,1.1,1.3,2.2,1.9,3.3
	c0.6-1,1.4-1.9,1.8-2.9c3.8-12.1,12.5-21.7,23.7-30.2c3-2.3,6.5-4.4,9.6-6.7c3.5-2.6,1.8-5.8,0-8c-0.9-1.1-5.4-0.7-8.2-0.4
	c-2,0.3-3.8,1.6-5.7,2.4c-7.2,3-14.4,6.1-21.6,9.1C180.4,280,177.7,281.4,178.4,285.8 M157.5,337.3c4.2-2.8,6.1-5.4,0.5-8.8
	c-3.9-2.3-4.1-6.1-3.7-9.7c0.5-4.2,0.8-8.4,1.4-12.6c0.3-2,0.6-4,1.3-6c0.3-0.7,1.1-1.3,1.8-1.9c0.8,0.6,1.5,1.2,2.2,1.7
	c7.7,5.5,10.9,13.1,13.4,20.6c1.3,3.5,2.8-0.5,3.5,0.7c0.5-1.6,1.6-3.3,1.3-4.8c-0.8-3.6-2.5-7.2-3.2-10.9
	c-1.1-6.8-1.8-13.7-2.7-20.6c0-0.5-0.4-1.1-0.6-1.6c-0.4,0.5-0.4,1.3-1,1.6c-5.3,3.4-11,6.4-16.1,10c-4.3,2.9-9.1,5.9-8.9,11.1
	c0.4,5.8,1,11.7,1.3,17.5c0.3,4.9,0,9.8,0,14.6c0.1,2,0.3,4,0.4,5.9c1.8-1.3,3.7-2.5,5.4-3.8C154.9,339.5,155.9,338.6,157.5,337.3
	 M212.6,297.8c3-2.7,5.8-5.6,9.1-7.9c0.9-0.7,4.4-0.4,5.3,0.5c5.4,4.9,10.6,10,15.6,15.3c1.4,1.3,0.6,4.1,2.2,5.2
	c1.8,1.3,4.8,1.6,7.3,2.4c0-1.3,0.5-3-0.3-4c-7.1-9.9-14.2-19.7-21.5-29.4c-2-2.6-5.1-2.2-7.7,0c-5.4,4.4-10.9,8.8-16.5,13
	c-7.8,5.9-11.4,13.7-15.2,21.5c-1.3,2.6,0.9,2.4,1.9,1.8c3.4-1.9,7.1-4,9.6-6.6C206.1,306.1,208.9,302.1,212.6,297.8 M348,992.8
	c0.4-8.4-3.8-15.9-8.1-23.3c-1.6-2.7-4.7-5.6-8-7.1c-11.3-5-22.8-9.4-34.3-14.1c-2.8-1.1-5.6-2.2-8.6-2.9c-1.1-0.2-2.8,0.9-4.2,1.4
	c0.9,0.8,1.6,1.9,2.9,2.5c9.2,4.4,18.2,9.2,28,12.9c12.8,4.7,18.2,13.5,23.7,22.9C341.1,988.1,340.7,993.1,348,992.8 M51.2,949.3
	c3.7,0.7,7.3,1.4,11,2c2.8,0.4,5.7,0.6,8.6,0.9c-2.2-2.3-4.1-4.9-6.7-6.8c-1.4-1-4.2-0.6-6.3-1.1c-1.5-0.4-3.2-1-4.7-1.7
	c-3.3-1.7-6.2-4.3-9.9-5.1c-8.2-1.8-16.8-2.6-22.9-8.4c-1-1.1-3.4-1.4-5.3-1.7c-2.2-0.4-3.7-0.4-3.8,2.3c0,5.8,2,8,9,9.7
	C30.6,941.9,42.3,941.8,51.2,949.3 M298,10.3c8.4,2,7.7,9.1,12,13.3c0.6,0.7,0.5,1.8,0.8,2.7c1.1-1,2.7-1.7,3.4-2.8
	c3.2-4.6,3.4-9.7,0.6-14.2c-1.4-2-6.1-3.6-9.4-3.7C302.6,5.5,297.7,5.5,298,10.3 M393.6,70.8c-1.4-0.8-2.8-1.7-4.3-2.5
	c-0.6,1.3-1.6,2.5-1.9,3.8c-0.4,2.1-0.8,4.4,0.1,6.3c1.1,2.9,3,5.8,8.1,4.9c0.5-0.1,1-0.8,1-1.1C395.6,78.7,394.6,75.3,393.6,70.8"
	/>
<path class="st0" d="M194.9,1009.1c-0.4,0-0.8-0.2-1.1-0.4C194.1,1008.8,194.5,1008.8,194.9,1009.1"/>
<path class="st0" d="M248,1045.1c-0.4,0-0.8-0.2-1.1-0.4C247.3,1044.8,247.7,1044.8,248,1045.1"/>
<path class="st0" d="M82,490.6c-0.1,0.2-0.5,0.3-0.9,0.3C81.3,490.7,81.5,490.5,82,490.6"/>
<path class="st0" d="M82.6,495.6c0.4,0,0.4,0.3,0.4,0.6C82.7,496.1,82.5,495.9,82.6,495.6"/>
<path class="st0" d="M75.6,920.6c-0.1,0.2-0.5,0.3-0.9,0.3C75,920.7,75.1,920.5,75.6,920.6"/>
<path class="st0" d="M74.6,911.6c0.4-0.1,0.8,0.1,1.3,0.3C75.4,911.9,75,911.8,74.6,911.6"/>
<path class="st0" d="M75.6,918.6c-0.1,0.2-0.5,0.3-0.9,0.3C75,918.7,75.1,918.5,75.6,918.6"/>
<path class="st0" d="M75.6,917.1c-0.4-0.1-0.4-0.4-0.5-0.7C75.4,916.5,75.6,916.7,75.6,917.1"/>
<path class="st0" d="M75,914.6c0.4,0,0.4,0.3,0.4,0.6C75.1,915.1,74.9,914.9,75,914.6"/>
<path class="st0" d="M385.8,264.6c1.5-2.3,4.7-3.1,6.5-1.8c0.9,0.6,1,1.9,1.4,2.9C391.1,265.4,388.6,265.1,385.8,264.6"/>
<path class="st0" d="M352.2,357.1c1.5-1.1,3.3-2,5.2-2.8c0.3,0.9,0.5,1.7,0.8,2.6C356.3,357,354.4,357.2,352.2,357.1"/>
<path class="st0" d="M272.1,329.3c1.8-1.1,3.4-1.8,5.2-2.5c0.4,0.9,0.8,1.7,1.1,2.6C276.4,329.5,274.2,329.7,272.1,329.3"/>
<path class="st0" d="M186,283.3c1.8,0.4,2.8,0.8,3.8,1.2c-1.3,0.6-2.5,1.2-3.8,1.8C185.9,285.3,185.6,284.3,186,283.3"/>
<path class="st0" d="M351.8,806.3c6.5,2.8,8.4,8.2,5.4,13.2c-3.4,5.9-7.5,6.5-12.7,1.5c-2.9-2.9-4.6-6.2-3-10.3
	C343.2,806.6,346.8,806.1,351.8,806.3"/>
<path class="st0" d="M363.2,446.3c-0.3-4-0.5-7.6,5.7-8c3.9-0.2,8.4,3.7,8.1,7.6c-0.1,2.2,2.3,5.6-2.9,6.4
	C368.2,453.3,364.6,451.3,363.2,446.3"/>
<path class="st0" d="M320.2,394.3c1.9,4.1,0.4,9.5-3.3,9.8c-2.5,0.3-6.2,1.6-8.2-2.1c-3.2-5.9-3.2-9.5,1.4-11.7
	C315.5,387.7,317.8,390.8,320.2,394.3"/>
<path class="st0" d="M262,540.3c-3.5,5.1-8.1,6.6-13.2,3.9c-2.3-1.3-4.8-4.7-4.2-6.2c1.3-2.7,5.3-4.8,9.5-3.3
	C257,535.9,259.4,538.1,262,540.3"/>
<path class="st0" d="M255.6,446.3c-4.7,0.2-7.6-0.6-7.6-4.4c0-3.6,2.8-6.8,6.2-6.2c3,0.5,6.2,4.1,7.5,6.8
	C263.4,445.7,259.4,446.1,255.6,446.3"/>
<path class="st0" d="M388.6,325.3c0.1,1.3,0,3.6-0.9,3.8c-2,0.5-4.4,0-6.6-0.4c-0.3-0.1,0-3.2,0.4-3.2
	C383.5,325.1,385.8,325.3,388.6,325.3"/>
<path class="st0" d="M383.5,289.3c-0.1-1.3,0.1-3.7,0.8-3.8c2-0.2,4.4,0.2,6.2,1c0.8,0.3,0.4,2.3,0.5,3.5
	C388.7,289.8,386.4,289.5,383.5,289.3"/>
<path class="st0" d="M377.5,340.6c2.8-0.9,5.4-1.6,8-2.2c0.1,1,1,2.6,0.4,3.1c-1,0.9-3,1.8-4.4,1.7
	C379.9,343,378.7,341.6,377.5,340.6"/>
<path class="st0" d="M355.6,340.3c2.2,1.2,3.7,2.3,5.1,3.4c-1.5,0.6-3.2,1.5-4.8,1.5c-1.3,0-2.7-1-4.1-1.5
	C353,342.5,354,341.4,355.6,340.3"/>
<path class="st0" d="M386,276.3c-1-1-1.4-2-1.8-3.1c2.5-0.3,5.1-0.6,7.6-0.7c0.1,0,0.8,2.4,0.5,2.5
	C390.6,275.6,388.6,275.9,386,276.3"/>
<path class="st0" d="M353.5,313.1c0.1-1.5,0.6-3.6,1.3-3.6c1.9-0.1,3.8,0.5,5.6,1.1c0.4,0.2,0.1,2.5-0.1,2.5
	C358,313.3,355.9,313.3,353.5,313.1"/>
<path class="st0" d="M383.5,299.3c2.5,0.5,4.4,0.9,6.2,1.4c-0.5,0.8-0.9,2.3-1.5,2.3c-2,0.1-4.6,0.1-6.3-0.6
	C379.1,301.1,379.6,299.7,383.5,299.3"/>
<path class="st0" d="M361.7,263.6c-1.4,1-2.9,2.1-4.7,2.6c-0.5,0.1-1.8-1.3-2.7-2c0.9-0.7,1.6-1.8,2.5-1.8
	C358.3,262.4,359.8,263,361.7,263.6"/>
<path class="st0" d="M272.1,281.3c2.2,0.8,3.7,1.6,5.1,2.3c-1.8,0.9-3.4,2.3-5.3,2.6c-1.4,0.2-3.2-0.9-4.8-1.5
	C268.6,283.6,270.1,282.4,272.1,281.3"/>
<path class="st0" d="M269.9,304.6c0.9-0.4,1.4-0.6,2-0.6c2.2,0,4.3,0.1,6.5,0.1c-0.9,1.4-1.5,3.4-2.9,3.8
	C272.6,308.7,269.4,308.4,269.9,304.6"/>
<path class="st0" d="M274.6,314.3c1.8,0.6,2.8,1.2,3.8,1.7c-1.6,0.8-3.3,2-5.1,2.1c-1.1,0.1-2.5-1.3-3.8-2.1
	C271.1,315.4,272.6,314.9,274.6,314.3"/>
<path class="st0" d="M268,262.1c1-0.5,2-0.9,2.5-0.7c1.9,0.7,3.5,1.7,5.3,2.5c-0.8,0.5-1.6,1.4-2.3,1.3
	C271.1,265,266.8,266.9,268,262.1"/>
<path class="st0" d="M273.7,339.6c1.5-1,2.8-1.6,4.1-2.3c0.3,1.7,0.6,3.4,0.5,5.1c0,0.3-2.5,1-2.7,0.8
	C274.6,342.2,274.1,341,273.7,339.6"/>
<path class="st0" d="M234.1,274.3c0.1-1,0.5-2.7,1.4-2.8c1.9-0.4,4.1,0,6.1,0.1c-0.5,0.8-0.8,2.1-1.4,2.3
	C238.5,274.3,236.7,274.2,234.1,274.3"/>
<path class="st0" d="M279.7,364.3c-0.3,0.7-0.6,1-0.9,1c-1.6,0-3.4-0.1-5.1-0.2c0.4-0.8,0.8-2.3,1-2.2
	C276.4,363,278,363.5,279.7,364.3"/>
<path class="st0" d="M211.1,272.1c1.4,0,2.7,0.2,3.8,0.4c-0.5,0.6-1,1.7-1.6,1.7c-1.4,0-2.9-0.4-4.4-0.6
	C209.4,273.2,210.1,272.7,211.1,272.1"/>
<path class="st0" d="M246.5,756.1c-3.4-0.2-8,1.8-8.7-2.5c-0.5-2.2-0.9-4.9,0.3-6.6c1.9-2.9,5.4-4,9.2-1.8c3.9,2.3,4.6,6.1,1.8,8.8
	C248.4,754.7,247.5,755.2,246.5,756.1"/>
<path class="st0" d="M395.9,584.1c-4.7,1.6-9.4,2.3-12.5-0.7c-2.2-2.1-5.2-4.6-2.8-8.4c2.2-3.6,5.8-4.6,10-4.6
	c5.1-0.1,9,2.4,9.6,5.9C400.7,578.6,397.7,581.3,395.9,584.1"/>
<path class="st0" d="M152.2,779.1c1.6,4.4,4.9,8.7-0.4,12.7c-3.8,2.9-8.2,2-10.1-1.8c-1.3-2.8-2.8-5.5-3.7-8.3
	c-1.5-4.3,1.5-6.4,6.5-7C148.4,774.2,151.8,774.8,152.2,779.1"/>
<path class="st0" d="M325.6,506.1c3.2,3.8,3.2,7.4-0.4,10.6c-2.7,2.7-7.6,2.1-8.7-1.1c-0.9-2.6-0.6-5.4-1.4-8c-1-3.3,2-4.7,4.7-5
	C321.3,502.4,323.5,504.6,325.6,506.1"/>
<path class="st0" d="M430.1,524.6c-4.6-5.3-4.6-9.9-0.5-12.2c4.4-2.4,10.9,1.4,13.4,6c0.1,0.3,0,0.7,0,1c-0.1,3,0.8,7.9-0.9,8.5
	C438.2,529.4,433.2,528.4,430.1,524.6"/>
<path class="st0" d="M356,283.1c-1.1-1.5-2-2.7-2.9-3.8c2-0.4,4.2-1,6.1-0.9c1.5,0.1,2.8,1.4,4.1,2.1c-1.3,0.9-2.4,2-3.8,2.7
	C358.7,283.6,357.4,283.3,356,283.1"/>
<path class="st0" d="M355.4,329.6c-1.4-1-2.4-1.8-3.5-2.6c0.9-0.5,1.8-1.2,2.7-1.7c0.3-0.1,0.9-0.1,1.3,0c2,0.8,4.2,1.6,6.2,2.4
	C359.9,328.4,357.8,329.1,355.4,329.6"/>
<path class="st0" d="M355.6,293.3c2.3,0.6,3.9,1.1,5.3,1.8c0.6,0.3,0.8,1.9,0.6,1.9c-2,0.5-4.2,1.2-6.3,1.2c-1.1,0-2.3-1.3-3.4-2
	C353,295.2,354,294.3,355.6,293.3"/>
<path class="st0" d="M375.6,359.6c-0.8-1.3-1.1-2.4-1.5-3.4c2.2-0.2,4.3-0.9,6.3-0.6c0.8,0.1,1.6,2.1,1.6,3.2
	c-0.1,0.5-2,1.2-3.3,1.4C377.9,360.4,376.9,360,375.6,359.6"/>
<path class="st0" d="M382,315.6c-1-1-1.6-1.8-2.3-2.5c2-0.6,3.9-1.5,5.8-1.6c0.9-0.1,2.5,1.3,2.8,2.3c0.3,0.7-1,2.1-2,2.4
	C385.1,316.5,383.6,316,382,315.6"/>
<path class="st0" d="M271.2,291.6c1.1-0.3,2.2-0.5,2.8-0.2c1.5,0.6,3,1.4,4.4,2.2c-1.5,0.9-3,2.4-4.7,2.5c-1.6,0.1-3.5-1.1-5.4-1.8
	C269.2,293.5,270.1,292.7,271.2,291.6"/>
<path class="st0" d="M273.4,275.3c-2-0.3-3.7-0.5-5.1-1.1c-0.6-0.2-1.3-1.1-1.1-1.6s1.1-1.2,1.8-1.2c2.4,0,4.7,0.4,7,0.6
	C275.3,273.1,274.6,274.2,273.4,275.3"/>
<path class="st0" d="M278.2,351.6c-0.3,1.3-0.5,2.7-1.5,3.5c-0.6,0.4-2.5-0.3-3.7-0.7c-0.9-0.4-1.3-1.2-1.9-1.7
	c1.1-0.5,2.4-1.1,3.7-1.3C275.6,351.1,276.8,351.3,278.2,351.6"/>
<path class="st0" d="M239.2,265.3c-0.8,0.8-1.6,1.4-2.5,1.5c-1.4,0-2.8-0.3-4.1-0.5c-0.3-0.1-0.4-0.6-0.5-0.9c1.3-0.3,2.4-0.9,3.7-1
	C236.9,264.3,238,264.6,239.2,265.3"/>
<path class="st0" d="M189.6,290.6c1.1,0.6,1.9,0.9,2.8,1.2c-1.4,0.9-2.8,1.9-4.3,2.4c-0.8,0.2-2-0.7-2.9-1.3
	c-0.3-0.1,0.4-1.2,0.9-1.5C187,290.8,188.2,290.6,189.6,290.6"/>
<path class="st0" d="M415.1,398.3c-0.3,2.4,0,4.5-1,6.1c-1,1.9-3,3.3-4.7,4.9c-1.9-1.5-4.2-2.8-5.6-4.5c-2.4-3.2-2.9-6.7,1.5-9
	c1.8-1,4.9-0.6,7.5-0.4C413.7,395.5,414.4,397,415.1,398.3"/>
<path class="st0" d="M513,812.1c-1.3-2-1.9-3.8-3-5.4c-3.5-4.5-3.2-7.8,1.5-10c4.3-1.9,10-0.2,12.5,4.1c1.1,1.9,2.3,4,2.4,6.1
	c0.4,3,1.4,6.4-3,8.4C518.4,817.5,516,814.6,513,812.1"/>
<path class="st0" d="M301.6,292.9c-4.1-5.8-1.4-10.5,2.2-15.3c3.2-4.3,6-8.7,9.2-13.1c0.3-0.4,2.3-0.8,2.3-0.8
	c5.2,7.6,13.3,14.8,12.5,23.5c-0.6,6.4-4.2,13.4-11.5,17.9c-2.1,1.3-5,1.5-6.7-1C307,300.4,304.4,296.8,301.6,292.9"/>
<path class="st0" d="M368.3,35.3c-0.8,0-1,0-1.3,0c-2.9-0.1-5.8-0.3-8.7-0.5c2.7-0.8,5.3-2,8.1-2.4c4.8-0.6,9.7-0.8,14.6-1.1
	c0.8,0,1.6,0.2,2.4,0.4c-0.5,0.4-1,0.9-1.4,1.4C378.6,37.1,373.5,35.1,368.3,35.3"/>
<path class="st0" d="M437,299.2c1.5,8.5-3.6,14.7-10.4,20.1c-3.8,3.1-5.9,2.6-7.6-1.6c-1.5-3.8-3.1-7.5-3.9-11.4
	c-1.9-9.5,5.9-16.3,11.2-23.6c1.6-2.2,3.5-1.8,4.4,0.7c1.5,4.1,2.9,8.1,4.5,12.2C435.6,296.7,436.2,297.9,437,299.2"/>
<path class="st0" d="M425.8,352.7c-2.8,2.6-5.1,4.9-7.7,7.1c-2.3,1.9-4.8,2-6-0.8c-2.6-5.5-5.1-11-7-16.6c-1.6-4.2,3.5-6.5,5.8-9.5
	c0.6-0.9,1.8-1.5,2.7-2.2c6.8-6,7.9-5.8,12.8,1.6c1.3,2.1,3.1,4.1,4.3,6.2C433.5,343.9,431.2,348.5,425.8,352.7"/>
<path class="st0" d="M299.6,330.1c3.5-6.1,6.6-12,10.8-17.3c1.8-2.4,5.8-1.4,7.6,1c3.9,5.3,7.6,10.8,10.7,16.5
	c0.8,1.4-0.3,4.1-1.7,5.5c-4.6,4.6-7.7,9.7-8.8,15.4c-0.1,1-1.8,1.7-2.8,2.4c-0.9-0.7-2-1.3-2.5-2.2c-3.9-5.3-7.7-10.5-11.4-15.9
	C300.6,334.1,300.2,332.2,299.6,330.1"/>
<path class="st0" d="M259.2,516.1c-2.4,2.2-4.4,4.2-6.5,6.2c-1.1-2.4-2.8-4.8-3.3-7.3c-1.6-7.5-5.1-14.4-10.8-20.4
	c-2.8-2.9-2.2-5,0-7.2c7.2-7.6,12.4-15.8,14.6-25.2c0.4-1.4,2-2.6,3.2-3.8c0.8,1.2,1.6,2.4,2.2,3.7c2.9,6.8,5.6,13.6,8.6,20.2
	c1,2.3,3,4.4,4.9,6.4c2.7,3,2.4,5.4-0.4,8.7C267,503.2,263.5,509.6,259.2,516.1"/>
<path class="st0" d="M251.8,797.3c2.7,3.3,5.6,6,8,8.9c0.5,0.7-0.4,2.8-1.4,3.3c-8.9,4.7-14.9,11-19.4,18.6
	c-1.1,2.1-4.1,4.9-6.1,4.9c-4.1,0-3.9-3.3-3.9-6.1c-0.1-10-11.1-22.9-22.5-26.6c-1.4-0.5-2.5-1.8-3.8-2.7c1.3-0.4,2.5-1.3,3.8-1.2
	c15.3,0.4,23.3-8.3,29-18.6c1.3-2.4,3.8-4.4,5.8-6.5c0.9,2.5,2.8,5,2.8,7.5C244.2,785.5,247.8,791.2,251.8,797.3"/>
<path class="st0" d="M322.5,431.6c1.1,1.6,1.9,3.1,3,4.3c3.4,3.7,3.2,6.9,1.4,11.5c-3.7,9.7-8.9,19.3-8.1,29.9
	c0.1,1.6-1.4,3.3-2.2,5c-0.9-1.4-2.4-2.7-2.7-4.2c-1.9-8.5-5.2-16.5-11.4-23.7c-2-2.3-1.3-4.5,0.5-7.4c3.9-6.5,10.9-12.2,9.5-20.3
	c0-0.5,0-1,0-1.5c0.3-2.3,0.5-4.6,0.8-6.9c1.9,2,4.1,3.9,5.6,6.1C320.3,426.5,321.1,429,322.5,431.6"/>
<path class="st0" d="M455.6,789.3c-3.3,6.6-3.3,12.9-1.5,19.3c0.3,0.8,0.5,1.7,0.3,2.4c-0.5,1.5-1.3,2.9-1.9,4.3
	c-1-1.1-2.7-2.2-3-3.4c-2.8-8.9-8.5-16.4-15.7-23.4c-1.3-1.2-2.7-2.8-4.4-3.4c-6.5-2.1-5.4-5.7-4.1-9.8c2-6.4,3.4-12.9,5.2-19.3
	c0.3-1.2,1-2.3,1.5-3.5c1.3,0.6,3,0.9,3.9,1.7c6.3,6.6,12.4,13.3,18.9,19.8C459.4,778.8,455.4,783.9,455.6,789.3"/>
<path class="st0" d="M368.3,491.3c0-2.7-0.3-4.9,0.1-7c0.3-1,1.5-2,2.3-3c0.9,0.8,2,1.4,2.7,2.3c5.6,8.7,10.4,17.7,16.8,25.9
	c2.5,3.4,1.6,4.9-0.5,7.5c-5.1,6.4-9.5,13.1-6.2,21.1c0.3,0.8,0.3,1.7,0,2.5c-0.4,1.8-1,3.7-1.5,5.5c-1.5-1.7-3.7-3.2-4.4-5.1
	c-2.9-6.9-5.3-13.9-8-20.9c-0.1-0.5,0.1-1.2-0.3-1.4c-10.9-8.2-1.9-16.9-1-25.4C368.4,492.8,368.3,492.3,368.3,491.3"/>
<path class="st0" d="M407.5,457.3c1.8-8.3,3.4-16,5.2-23.8c0.3-1.3,1-2.6,1.5-3.9c1,0.9,2.2,1.9,3,2.9c3.2,3.8,5.8,7.9,9.5,11.4
	c6.8,6.4,7.6,13.5,4.6,21c-2.9,7.2-2.8,14.1,0.5,21.2c0.6,1.4-0.1,3.2-0.3,4.8c-1.6-0.7-3.4-1.1-4.8-2c-1.1-0.8-2.3-1.9-2.7-3.1
	c-3.2-9.4-9.2-17.7-16.1-25.7C407.5,459.5,407.7,458.6,407.5,457.3"/>
<path class="st0" d="M463.6,581.6c-2.7,8.2-4.3,16.3-1.8,24.5c0.4,0.9-0.8,2.1-1.1,3.2c-1.5-0.7-3.7-1.1-4.4-2.1
	c-4.6-6.2-8.9-12.4-13.3-18.7c-0.4-0.5-0.5-1.3-1.1-1.5c-9.7-3.8-7.3-9.7-5.3-16.2c1.8-5.7,1.8-11.7,2.8-17.6
	c0.3-1.3,1.1-2.6,1.8-3.9c1,1.1,2.2,2.2,3.2,3.4c5.3,6.2,10.1,12.8,16.2,18.6C463.9,574.6,465.6,577.3,463.6,581.6"/>
<path class="st0" d="M149.3,732.3c-2,4-4.2,7.5-6.3,10.9c-1.1,1.8-2.4,3.4-3.5,5.1c-1.4-1.6-3.4-3.1-3.9-4.8
	c-1.5-6.7-2.2-13.6-4.1-20.2c-1.5-5.2-4.2-10.3-7.2-15.1c-2.9-4.7-3-6,2.7-8.9c11.3-5.9,18.9-14.1,23.8-23.9c0.4-1,1.4-1.9,2.2-2.9
	c0.9,1.2,2.4,2.3,2.7,3.6c0.9,4.3,0.4,8.8,1.9,12.9c2,5.1,4.7,10.3,8.6,14.6c4.2,4.8,3,8.6-0.6,12.5
	C160.3,721.5,154.7,726.6,149.3,732.3"/>
</svg>
